<svg xmlns="http://www.w3.org/2000/svg" width="16" height="16"><path fill="#fff" d="M11.2 9.5c-1.024 0-1.516.5-3.2.5-1.684 0-2.172-.5-3.2-.5-2.652 0-4.8 1.883-4.8 4.2v.8c0 .828.77 1.5 1.715 1.5h12.57C15.23 16 16 15.328 16 14.5v-.8c0-2.317-2.148-4.2-4.8-4.2zm3.085 5H1.715v-.8c0-1.49 1.387-2.7 3.086-2.7.52 0 1.367.5 3.199.5 1.848 0 2.676-.5 3.2-.5 1.698 0 3.085 1.21 3.085 2.7zM8 9c2.84 0 5.145-2.016 5.145-4.5S10.84 0 8 0C5.16 0 2.855 2.016 2.855 4.5S5.16 9 8 9zm0-7.5c1.89 0 3.43 1.348 3.43 3s-1.54 3-3.43 3c-1.89 0-3.43-1.348-3.43-3s1.54-3 3.43-3zm0 0"/></svg>